<svg width="866" height="596" viewBox="0 0 866 596" fill="none" xmlns="http://www.w3.org/2000/svg">
<g clip-path="url(#clip0_181_1015)">
<g clip-path="url(#clip1_181_1015)">
<path d="M364.457 438.674C288.494 481.449 331.27 586.913 356.345 591.338C375.658 594.746 439.149 592.792 469.921 591.338L708.134 415.074L568.745 395.899C525.97 395.899 425.228 404.454 364.457 438.674Z" fill="white"/>
<path d="M469.921 591.338C468.822 591.393 471.111 591.281 469.921 591.338ZM469.921 591.338C439.149 592.792 375.658 594.746 356.345 591.338C331.27 586.913 288.494 481.449 364.457 438.674C425.228 404.454 525.97 395.899 568.745 395.899L708.134 415.074L469.921 591.338Z" stroke="black" stroke-width="2.91102"/>
<path d="M385.106 453.152C437.616 443.122 480.244 473.965 494.994 490.64C497.458 487.195 500.122 483.789 502.998 480.44C498.464 460.527 410.181 439.14 385.106 453.152Z" fill="#000001"/>
<path d="M464.596 593.52C466.46 593.439 468.239 593.358 469.92 593.278L664.486 449.312C655.915 446.413 633.823 437.494 614.029 425.009C479.733 440.923 458.451 543.981 464.596 593.52Z" fill="#0E1729"/>
<path d="M686.745 593.277C783.357 562.302 708.132 422.176 708.132 417.014L671.994 412.042C487.913 423.405 460.576 537.6 469.918 593.277L500.984 849.191H581.037L587.919 593.277H686.745Z" fill="white" stroke="black" stroke-width="2.91102"/>
<path d="M568.745 540.178C580.545 551.978 586.446 580.495 587.921 593.278H598.983C596.033 578.774 585.855 547.848 568.745 540.178Z" fill="#000001"/>
<rect x="71" y="593" width="796" height="3" fill="black"/>
<path d="M583.714 146.088C579.83 141.143 569.73 125.958 560.407 104.77C562.526 102.297 566.551 94.8104 565.704 84.6398C554.686 82.9447 548.009 59.2134 546.048 47.5596C560.679 39.4435 548.212 17.7929 552.991 16.8366C558.288 15.7766 572.061 21.0738 572.061 34.8464C572.061 48.619 595.657 42.118 601.725 39.0841C616.556 31.6681 611.26 49.6796 604.903 66.63C601.513 72.5628 613.378 83.9341 619.735 88.8781C621.429 105.829 606.315 131.962 598.546 142.909C599.606 174.692 599.818 238.258 592.19 238.258C587.105 228.088 584.421 172.573 583.714 146.088Z" fill="white" stroke="black" stroke-width="1.94068"/>
<path d="M574.177 49.6725C572.411 51.4383 569.939 56.4529 574.177 62.3858" stroke="#241715" stroke-width="0.970341"/>
<path d="M582.652 65.5718C581.946 69.4564 578.838 75.3186 572.058 67.6907" stroke="#241715" stroke-width="0.970341"/>
<path d="M605.96 52.8538C607.372 48.9692 609.138 41.4119 604.9 42.2594" stroke="#241715" stroke-width="0.970341"/>
<path d="M564.572 96.2916C565.506 93.0569 566.075 89.1066 565.702 84.6383C571.573 87.817 581.592 88.8765 602.781 74.0435C603.627 85.0616 577.661 93.4664 564.572 96.2916Z" fill="black"/>
<path d="M618.674 16.8356C626.09 34.846 609.139 59.213 604.901 66.629C611.258 49.6786 615.495 31.6671 601.723 39.0832C595.75 42.2994 572.059 48.6181 572.059 34.8454C572.059 21.0728 558.286 15.7756 552.989 16.8356C548.21 17.7919 560.677 39.4426 546.047 47.5587C544.46 48.4386 542.556 49.1594 540.276 49.6775C545.573 42.2615 543.454 43.3209 539.216 25.3105C534.979 7.30016 554.049 3.06296 572.059 0.944096C590.069 -1.17477 611.258 -1.17477 618.674 16.8356Z" fill="black"/>
<path d="M718.26 131.256C704.699 113.457 646.924 95.5883 619.732 88.8785C621.427 105.829 606.313 131.962 598.544 142.91C599.604 174.693 599.815 238.259 592.188 238.259C587.102 228.088 584.418 172.574 583.712 146.088C579.827 141.144 569.728 125.959 560.405 104.77C558.286 111.127 501.076 154.563 491.541 168.336C482.006 182.109 478.828 314.538 478.828 326.192C478.828 337.846 474.59 417.303 509.552 417.303C537.521 417.303 651.869 421.188 709.784 422.6C718.26 332.901 731.82 149.054 718.26 131.256Z" fill="black"/>
<path d="M478.831 326.185C536.747 314.178 652.578 300.971 652.578 344.196C652.578 387.42 598.9 411.849 572.061 418.659M652.578 98.3068C645.515 101.518 630.542 116.629 627.152 151.379C622.914 194.815 609.311 209.647 598.291 209.647M587.477 211.766C578.454 216.71 558.712 220.454 551.932 195.875C543.457 165.151 525.774 148.2 506.011 153.497M684.361 110.061C682.242 109.165 648.341 132.309 645.162 185.28C641.984 238.252 608.082 337.839 538.159 284.867C511.672 258.381 486.151 241.784 481.865 243.549M560.408 418.339C569.942 409.163 586.47 387.844 576.299 375.979C566.128 364.113 510.497 380.216 483.953 389.751M723.348 158.795C700.464 172.92 658.299 217.911 672.708 284.867C685.421 323.007 708.653 319.122 718.68 312.413M714.847 364.325C701.153 364.505 675.038 376.254 680.124 421.805" stroke="white" stroke-width="0.970341"/>
<path d="M592.188 417.293V239.308" stroke="#027269" stroke-width="0.970341"/>
<path d="M592.824 415.56L587.617 376.847C575.777 378.995 551.119 381.076 532.071 382.881C512.13 384.771 507.105 395.241 520.49 398.585C513.489 397.711 505.65 407.364 516.822 411.686C508.627 414.597 524.836 417.845 532.782 417.861C528.234 418.548 520.349 419.815 521.421 424.634C522.493 429.452 569.469 420.592 592.824 415.56Z" fill="white"/>
<path d="M592.824 415.561L587.617 376.848C584.863 377.348 581.415 377.844 577.505 378.334L565.66 420.952C575.612 419.142 585.409 417.159 592.824 415.561Z" fill="black"/>
<path d="M533.106 418.146L549.58 413.509" stroke="black" stroke-width="0.970341"/>
<path d="M520.596 407.801L549.476 404.295" stroke="black" stroke-width="0.970341"/>
<path d="M520.491 398.584L549.988 393.482" stroke="black" stroke-width="0.970341"/>
<path d="M749.692 381.565C752.255 340.991 755.054 136.522 709.286 125.5C656.382 112.759 657.076 307.755 680.043 352.24L572.016 363.222L582.152 430.623C634.673 426.955 745.449 448.703 749.692 381.565Z" fill="black"/>
<path d="M709.285 125.499C656.382 112.759 657.075 307.754 680.043 352.24L572.015 363.222" stroke="white" stroke-width="0.970341"/>
<path d="M731.322 154.883C714.975 156.661 678.645 166.099 669.733 188.221M741.493 190.481C726.761 196.925 692.271 218.617 687.92 240.885C683.57 263.152 729.646 255.634 748.274 251.505M749.404 290.493C733.92 297.722 679.644 302.52 667.473 285.973M749.968 359.993C734.111 350.37 688.46 331.161 676.514 338.522M633.571 356.603C626.79 371.294 637.409 425.315 667.473 431.189" stroke="white" stroke-width="0.970341"/>
<path d="M286.324 279.458H468.26C471.447 279.458 474.311 281.407 475.481 284.372L529.515 421.342C530.685 424.307 533.548 426.256 536.736 426.256H678.251C680.854 426.256 682.964 428.366 682.964 430.969C682.964 433.573 680.854 435.683 678.251 435.683H342.118C338.935 435.683 336.075 433.74 334.902 430.782L279.107 290.082C277.087 284.986 280.842 279.458 286.324 279.458Z" fill="white" stroke="black" stroke-width="2.91102"/>
<path d="M474.651 282.129L534.502 426.256H530.46C527.326 426.256 524.499 424.371 523.294 421.477L466.65 285.456C465.462 282.603 467.559 279.458 470.65 279.458C472.401 279.458 473.98 280.512 474.651 282.129Z" fill="black"/>
<path d="M334.902 430.782L279.107 290.082C277.087 284.986 280.842 279.458 286.324 279.458H300.352C301.507 279.458 302.643 279.716 303.692 280.199C308.658 282.486 316.954 286.082 330.731 293.043C376.822 316.331 382.644 365.818 372.941 390.077C365.074 409.743 469.053 430.071 509.905 435.683H342.118C338.935 435.683 336.075 433.74 334.902 430.782Z" fill="black"/>
<ellipse cx="11.5736" cy="13.3097" rx="11.5736" ry="13.3097" transform="matrix(-0.936312 0.351169 0.351169 0.936312 403.862 327.975)" fill="black"/>
</g>
</g>
<defs>
<clipPath id="clip0_181_1015">
<rect width="866" height="596" fill="white"/>
</clipPath>
<clipPath id="clip1_181_1015">
<rect width="889" height="596" fill="white" transform="translate(-23)"/>
</clipPath>
</defs>
</svg>
