<svg width="18" height="26" viewBox="0 0 18 26" fill="none" xmlns="http://www.w3.org/2000/svg">

  <style>
    svg {
      fill: black;
    }
    @media (prefers-color-scheme: dark) {
      svg {
        fill: white;
      }
    }
  </style>

<path d="M17.0706 8.94823C17.0706 12.2173 15.1336 15.0358 12.3455 16.3145C13.5228 15.3447 14.2726 13.8736 14.2726 12.2272C14.2726 9.33496 11.9581 6.98295 9.0784 6.92432C9.04018 6.92168 9.00527 6.92168 8.96706 6.92168C8.92884 6.92168 8.89393 6.92168 8.85571 6.92432C7.7871 6.9823 6.94117 7.86644 6.94117 8.94757V19.077C6.94117 22.4324 4.21891 25.1546 0.863525 25.1546V8.94823C0.863525 4.4735 4.49233 0.844696 8.96706 0.844696C13.4418 0.844696 17.0706 4.4735 17.0706 8.94823Z"/>
<path d="M10.3994 10.3807C11.1906 9.5896 11.1906 8.30689 10.3994 7.51574C9.60828 6.72459 8.32558 6.72459 7.53443 7.51574C6.74328 8.30689 6.74328 9.58959 7.53443 10.3807C8.32558 11.1719 9.60828 11.1719 10.3994 10.3807Z"/>

</svg>
